{"accessors":[{"bufferView":1,"componentType":5126,"count":2075,"max":[49.146453857421875,106.6980209350586,43.97114181518555],"min":[-49.146453857421875,16.367111206054688,-43.97114181518555],"type":"VEC3"},{"bufferView":1,"byteOffset":24900,"componentType":5126,"count":2075,"max":[0.9945327043533325,0.9864325523376465,1],"min":[-0.9945327043533325,-0.9864319562911987,-1],"type":"VEC3"},{"bufferView":2,"componentType":5126,"count":2075,"max":[1,0.9996755123138428,0.9995103478431702,1],"min":[-0.9995101690292358,-0.9999551773071289,-0.9999090433120728,-1],"type":"VEC4"},{"bufferView":0,"componentType":5125,"count":4212,"max":[2074],"min":[0],"type":"SCALAR"},{"bufferView":1,"byteOffset":49800,"componentType":5126,"count":144,"max":[48.87982177734375,105.89067840576172,43.63569259643555],"min":[-48.87982177734375,17.174453735351562,-43.63569259643555],"type":"VEC3"},{"bufferView":1,"byteOffset":51528,"componentType":5126,"count":144,"max":[1,1,1],"min":[-1,-1,-1],"type":"VEC3"},{"bufferView":2,"byteOffset":33200,"componentType":5126,"count":144,"max":[1,0,0.866025447845459,1],"min":[-1,0,-0.866025447845459,-1],"type":"VEC4"},{"bufferView":0,"byteOffset":16848,"componentType":5125,"count":216,"max":[143],"min":[0],"type":"SCALAR"},{"bufferView":1,"byteOffset":53256,"componentType":5126,"count":5792,"max":[57.33623504638672,195.18011474609375,57.33623504638672],"min":[-57.33623504638672,107.17357635498047,-57.33623504638672],"type":"VEC3"},{"bufferView":1,"byteOffset":122760,"componentType":5126,"count":5792,"max":[0.9990302920341492,1,0.9990302920341492],"min":[-0.9990302920341492,-1,-0.9990302920341492],"type":"VEC3"},{"bufferView":2,"byteOffset":35504,"componentType":5126,"count":5792,"max":[1,0.9992815256118774,1,1],"min":[-1,-0.9984018206596375,-1,-1],"type":"VEC4"},{"bufferView":0,"byteOffset":17712,"componentType":5125,"count":24603,"max":[5791],"min":[0],"type":"SCALAR"},{"bufferView":1,"byteOffset":192264,"componentType":5126,"count":4461,"max":[57.33623504638672,22.145641326904297,57.33623504638672],"min":[-57.33623504638672,-10.815284729003906,-57.33623504638672],"type":"VEC3"},{"bufferView":1,"byteOffset":245796,"componentType":5126,"count":4461,"max":[0.9999052882194519,1,0.9999052882194519],"min":[-0.9999052882194519,-1,-0.9999052882194519],"type":"VEC3"},{"bufferView":2,"byteOffset":128176,"componentType":5126,"count":4461,"max":[1,0.9995447993278503,1,1],"min":[-1,-0.9999145269393921,-1,-1],"type":"VEC4"},{"bufferView":0,"byteOffset":116124,"componentType":5125,"count":23544,"max":[4460],"min":[0],"type":"SCALAR"},{"bufferView":1,"byteOffset":299328,"componentType":5126,"count":701,"max":[54.923194885253906,181,33],"min":[-0.9945353269577026,179,-33],"type":"VEC3"},{"bufferView":1,"byteOffset":307740,"componentType":5126,"count":701,"max":[0.9999985098838806,1,1],"min":[-0.9999985098838806,-1,-1],"type":"VEC3"},{"bufferView":2,"byteOffset":199552,"componentType":5126,"count":701,"max":[0.9999985098838806,1,1,1],"min":[-0.9999985098838806,-1,-1,-1],"type":"VEC4"},{"bufferView":0,"byteOffset":210300,"componentType":5125,"count":3660,"max":[700],"min":[0],"type":"SCALAR"},{"bufferView":1,"byteOffset":316152,"componentType":5126,"count":442,"max":[14.949999809265137,25.841699600219727,14.949999809265137],"min":[-14.949999809265137,17.040876388549805,-14.949999809265137],"type":"VEC3"},{"bufferView":1,"byteOffset":321456,"componentType":5126,"count":442,"max":[0.9951841235160828,1,0.9951841235160828],"min":[-0.9951841235160828,-1,-0.9951841235160828],"type":"VEC3"},{"bufferView":2,"byteOffset":210768,"componentType":5126,"count":442,"max":[1,0.04366080462932587,1,1],"min":[-1,-0.043660860508680344,-0.9999632835388184,1],"type":"VEC4"},{"bufferView":0,"byteOffset":224940,"componentType":5125,"count":2160,"max":[441],"min":[0],"type":"SCALAR"},{"bufferView":1,"byteOffset":326760,"componentType":5126,"count":812,"max":[3.713102102279663,39.10157775878906,3.713102102279663],"min":[-3.713102102279663,25.626422882080078,-3.713102102279663],"type":"VEC3"},{"bufferView":1,"byteOffset":336504,"componentType":5126,"count":812,"max":[0.9973524212837219,0.9846813082695007,0.9973524212837219],"min":[-0.9973523616790771,-1,-0.9999394416809082],"type":"VEC3"},{"bufferView":2,"byteOffset":217840,"componentType":5126,"count":812,"max":[1,0.5334720611572266,1,1],"min":[-1,-0.5555917620658875,-0.9999798536300659,1],"type":"VEC4"},{"bufferView":0,"byteOffset":233580,"componentType":5125,"count":4320,"max":[811],"min":[0],"type":"SCALAR"}],"asset":{"extras":{"author":"coolfox14 (https://sketchfab.com/coolfox14)","license":"CC-BY-4.0 (http://creativecommons.org/licenses/by/4.0/)","source":"https://sketchfab.com/models/4a143fc43a234425a1b912df89dac355","title":"Ramadan Lantern Free"},"generator":"Sketchfab-3.19.4","version":"2.0"},"bufferViews":[{"buffer":0,"byteLength":250860,"byteOffset":0,"name":"floatBufferViews","target":34963},{"buffer":0,"byteLength":346248,"byteOffset":250860,"byteStride":12,"name":"floatBufferViews","target":34962},{"buffer":0,"byteLength":230832,"byteOffset":597108,"byteStride":16,"name":"floatBufferViews","target":34962}],"buffers":[{"byteLength":827940,"uri":"data:application/octet-stream;base64,"}],"extensionsRequired":["KHR_materials_pbrSpecularGlossiness"],"extensionsUsed":["KHR_materials_pbrSpecularGlossiness"],"materials":[{"doubleSided":true,"emissiveFactor":[0,0,0],"extensions":{"KHR_materials_pbrSpecularGlossiness":{"diffuseFactor":[0.775209618,0.3922155944,0.1089267178,1],"glossinessFactor":0.6846417683,"specularFactor":[0.2761051829,0.2761051829,0.2761051829]}},"name":"metal"},{"alphaMode":"BLEND","doubleSided":true,"extensions":{"KHR_materials_pbrSpecularGlossiness":{"diffuseFactor":[0.8,0.8,0.8,0.020007622],"glossinessFactor":0.4834222561,"specularFactor":[0.0565929878,0.0565929878,0.0565929878]}},"name":"glass"},{"doubleSided":true,"extensions":{"KHR_materials_pbrSpecularGlossiness":{"diffuseFactor":[0.8,0.8,0.8,1],"glossinessFactor":0.0475682846,"specularFactor":[0,0,0]}},"name":"material"},{"doubleSided":true,"emissiveFactor":[0.6069404046200506,0.11790827587742346,0.027131066893528243],"extensions":{"KHR_materials_pbrSpecularGlossiness":{"diffuseFactor":[0.7839144653,0.3849687346,0.0979863492,1],"glossinessFactor":0.0475682846,"specularFactor":[0,0,0]}},"name":"emitte"}],"meshes":[{"name":"metal_framessides_metal_0","primitives":[{"attributes":{"NORMAL":1,"POSITION":0,"TANGENT":2},"indices":3,"material":0,"mode":4}]},{"name":"frame_glass_glass_0","primitives":[{"attributes":{"NORMAL":5,"POSITION":4,"TANGENT":6},"indices":7,"material":1,"mode":4}]},{"name":"upper_base_metal_0","primitives":[{"attributes":{"NORMAL":9,"POSITION":8,"TANGENT":10},"indices":11,"material":0,"mode":4}]},{"name":"lower_base_metal_0","primitives":[{"attributes":{"NORMAL":13,"POSITION":12,"TANGENT":14},"indices":15,"material":0,"mode":4}]},{"name":"handel_metal_0","primitives":[{"attributes":{"NORMAL":17,"POSITION":16,"TANGENT":18},"indices":19,"material":0,"mode":4}]},{"name":"candel_SSS_0","primitives":[{"attributes":{"NORMAL":21,"POSITION":20,"TANGENT":22},"indices":23,"material":2,"mode":4}]},{"name":"candel_light_emitte_0","primitives":[{"attributes":{"NORMAL":25,"POSITION":24,"TANGENT":26},"indices":27,"material":3,"mode":4}]}],"nodes":[{"children":[1],"name":"RootNode (gltf orientation matrix)","rotation":[-0.7071067811865475,0,0,0.7071067811865476]},{"children":[2],"matrix":[0,1,0,0,-1,0,0,0,0,0,1,0,0,0.000022888199964654632,0,1],"name":"RootNode (model correction matrix)"},{"children":[3],"matrix":[1,0,0,0,0,0,1,0,0,-1,0,0,0,0,0,1],"name":"f10b22acc8474fb7804b325350f83afb.fbx"},{"children":[4],"name":"RootNode"},{"children":[5,7,9,11,13,15,17],"name":"lantern"},{"children":[6],"name":"metal_framessides"},{"mesh":0,"name":"metal_framessides_metal_0"},{"children":[8],"name":"frame_glass"},{"mesh":1,"name":"frame_glass_glass_0"},{"children":[10],"name":"upper_base"},{"mesh":2,"name":"upper_base_metal_0"},{"children":[12],"name":"lower_base"},{"mesh":3,"name":"lower_base_metal_0"},{"children":[14],"name":"handel"},{"mesh":4,"name":"handel_metal_0"},{"children":[16],"name":"candel"},{"mesh":5,"name":"candel_SSS_0"},{"children":[18],"name":"candel_light"},{"mesh":6,"name":"candel_light_emitte_0"}],"scene":0,"scenes":[{"name":"OSG_Scene","nodes":[0]}]}